<?xml version="1.0" encoding="UTF-8"?>
<svg width="12px" height="14px" viewBox="0 0 12 14" version="1.1" xmlns="http://www.w3.org/2000/svg" xmlns:xlink="http://www.w3.org/1999/xlink">
    <!-- Generator: Sketch 43.2 (39069) - http://www.bohemiancoding.com/sketch -->
    <title>fire</title>
    <desc>Created with Sketch.</desc>
    <defs></defs>
    <g id="Page-1" stroke="none" stroke-width="1" fill="none" fill-rule="evenodd">
        <g id="classification_v2" transform="translate(-1284.000000, -332.000000)" fill-rule="nonzero" fill="#FFD600">
            <g id="Label" transform="translate(702.000000, 310.000000)">
                <g id="Hot" transform="translate(563.000000, 16.000000)">
                    <g id="Group-9" transform="translate(19.000000, 4.000000)">
                        <g id="fire" transform="translate(0.000000, 2.000000)">
                            <path d="M5.39115584,7.00940867 C5.34975005,7.84343958 5.36158028,8.66564026 5.26693847,9.47601071 C5.13089088,10.6649484 4.50980403,11.6231967 3.62253711,12.3921613 C2.89497824,13.0250784 2.31529718,13.0191633 1.58773831,12.3921613 C0.452036648,11.4161677 0.108960105,10.1444185 0.298243715,8.70113094 C0.43429131,7.69556176 0.895670108,6.84970063 1.53450229,6.3291707 C1.60548365,6.84970063 1.63505921,7.40572123 1.7711068,7.93808139 C1.94856019,8.62423447 2.49866568,8.90224477 3.09017696,8.68930071 C3.51014997,8.53550778 3.74083937,8.21017657 3.72900914,7.79020357 C3.7112638,7.18094695 3.6639429,6.5598601 3.53972553,5.96834882 C3.30903613,4.86813784 3.40959305,3.82116287 3.88280208,2.80376347 C4.42107734,1.65031647 5.32017449,0.810370454 6.343489,0 C6.18969607,0.703898424 5.98266712,1.33681549 5.93534622,1.98156279 C5.88802532,2.66771588 5.91168577,3.38935964 6.05364847,4.05776738 C6.26067742,5.02784588 6.92317006,5.66076296 7.86367299,5.97426393 C8.283646,6.11031153 8.57348653,5.96243371 8.54391097,5.53654559 C8.49659006,4.86813784 8.33688202,4.21156032 8.21266465,3.5549828 C8.17717397,3.36569919 8.08844728,3.1882458 7.99972059,2.93981106 C8.08253217,2.98121685 8.11802284,2.98713197 8.14759841,3.01079242 C9.88072646,4.27662656 11.0460037,5.90328258 11.2944384,8.08004409 C11.4955523,9.82500237 10.7443329,11.9781034 8.84558172,12.900861 C8.07661705,13.2735131 7.26033149,13.5337781 6.44996103,13.8058733 C6.28433787,13.8591093 5.96492178,13.8117884 5.88802532,13.6994013 C5.79929862,13.5574386 5.84070441,13.2735131 5.91168577,13.0901446 C6.09505426,12.634681 6.32574366,12.2028777 6.53868772,11.7592443 C7.13611412,10.4934101 7.05330254,9.28081199 6.2488472,8.13328011 C5.9708369,7.73105244 5.65733592,7.35840033 5.39115584,7.00940867 Z" id="Shape"></path>
                        </g>
                    </g>
                </g>
            </g>
        </g>
    </g>
</svg>