<?xml version="1.0" encoding="utf-8"?>
<!-- Generator: Adobe Illustrator 21.0.2, SVG Export Plug-In . SVG Version: 6.00 Build 0)  -->
<svg version="1.1" id="Layer_1" xmlns="http://www.w3.org/2000/svg" xmlns:xlink="http://www.w3.org/1999/xlink" x="0px" y="0px"
	 viewBox="0 0 32 32" style="enable-background:new 0 0 32 32;" xml:space="preserve">
<style type="text/css">
	.st0{fill:#FFD600;}
</style>
<g>
	<g>
		<path class="st0" d="M30.3,17.6c0.7-0.8,1.7-1.8,1.7-2.9c0-1-0.4-1.9-1.1-2.7c-0.8-0.8-1.7-1.1-2.7-1.1c-0.9,0-1.9,0-2.8,0
			c-0.5,0-0.9,0-1.4,0c-0.4,0-1,0.1-1.3,0c0.1-0.4,0.5-0.9,0.6-1.3c0.2-0.5,0.4-1,0.5-1.5c0.3-1.6,0.1-3.2-0.3-4.8
			c-0.4-1.4-1.6-2.9-3.2-2.9c-0.9,0-1.5,1-1.9,1.7c-0.6,1.3-0.6,2.7-1.1,4c-0.4,1.2-1.4,2.2-2.2,3.1c-0.9,1.1-1.8,2.3-2.8,3.3
			c-0.3,0.4-0.7,0.8-1.2,0.9c-0.4,0.1-0.7,0.2-1,0.5c-0.2,0.2-0.4,0.5-0.4,0.9v12.8c0,0.3,0.1,0.6,0.4,0.9c0.3,0.2,0.6,0.4,0.9,0.4
			c0.5,0,1.5,0.3,3.2,0.9c1,0.3,1.8,0.6,2.4,0.8c0.6,0.2,1.4,0.4,2.4,0.6c1,0.2,2,0.3,2.9,0.3h0.3h1.5h0.7c1.8,0,3.1-0.5,3.9-1.6
			c0.8-0.9,0.7-2.4,0.6-3.9c0.5-0.5,1.3-0.9,1.5-1.6c0.2-0.8-0.1-1.6-0.4-2.3c0.6-0.8,1.3-1.8,1.2-2.8
			C31.2,18.8,30.5,18.2,30.3,17.6z"/>
		<path class="st0" d="M7,13.4H1.3c-0.3,0-0.6,0.1-0.9,0.4C0.1,14.1,0,14.4,0,14.7v12.8c0,0.3,0.1,0.6,0.4,0.9
			c0.3,0.3,0.6,0.4,0.9,0.4H7c0.3,0,0.6-0.1,0.9-0.4c0.3-0.3,0.4-0.6,0.4-0.9V14.7c0-0.3-0.1-0.6-0.4-0.9C7.7,13.6,7.4,13.4,7,13.4z
			"/>
	</g>
</g>
</svg>
